<svg width="885" height="23" viewBox="0 0 885 23" fill="none" xmlns="http://www.w3.org/2000/svg">
<path d="M442.483 15.88C444.982 15.88 447.007 13.862 447.007 11.3727C447.007 8.8834 444.982 6.86536 442.483 6.86536C439.984 6.86536 437.958 8.8834 437.958 11.3727C437.958 13.862 439.984 15.88 442.483 15.88Z" fill="#4A1F00"/>
<path d="M442.483 0.269653C440.284 0.273094 438.136 0.928144 436.309 2.15216C434.483 3.37617 433.06 5.11414 432.221 7.14642C431.382 9.1787 431.164 11.4141 431.595 13.5701C432.027 15.7261 433.087 17.7059 434.643 19.2594C436.199 20.8129 438.18 21.8702 440.337 22.2979C442.494 22.7256 444.729 22.5044 446.76 21.6622C448.791 20.82 450.526 19.3947 451.747 17.5663C452.969 15.7379 453.62 13.5886 453.62 11.3899C453.611 8.44045 452.434 5.61474 450.347 3.53076C448.26 1.44678 445.432 0.27424 442.483 0.269653ZM442.483 18.647C441.044 18.6435 439.638 18.2135 438.444 17.4113C437.25 16.6092 436.32 15.4708 435.773 14.1402C435.225 12.8097 435.085 11.3468 435.369 9.93634C435.653 8.52594 436.349 7.23149 437.369 6.21659C438.388 5.20169 439.686 4.51197 441.098 4.23467C442.51 3.95736 443.972 4.10493 445.3 4.65869C446.628 5.21244 447.762 6.14752 448.558 7.34569C449.355 8.54385 449.778 9.95121 449.774 11.3899C449.781 12.3511 449.598 13.304 449.234 14.1938C448.87 15.0835 448.334 15.8924 447.656 16.5737C446.978 17.255 446.172 17.7951 445.284 18.1629C444.396 18.5307 443.444 18.7189 442.483 18.7165V18.647Z" fill="#4A1F00"/>
<path d="M44.3422 10.9027C42.3404 10.9455 40.3792 10.3346 38.756 9.16243C37.4725 8.21286 36.5076 6.89601 35.9889 5.38606C34.6362 7.39766 32.6894 8.93681 30.42 9.78891C28.4691 9.01567 26.7021 7.84171 25.2332 6.34287C23.7644 4.84404 22.6263 3.05369 21.8927 1.08752C18.7602 6.30835 13.1913 8.77951 8.59696 10.0847C5.79186 10.8478 2.90591 11.2743 0 11.3552C2.907 11.4374 5.79348 11.8698 8.59696 12.643C13.2783 13.9134 18.7602 16.489 21.8927 21.6576C22.6301 19.6936 23.7695 17.9052 25.2379 16.4068C26.7063 14.9085 28.4713 13.7332 30.42 12.9562C32.6596 13.8645 34.5668 15.4377 35.8845 17.4636C36.2572 16.3081 36.9087 15.2622 37.7814 14.4181C38.6545 13.5844 39.6833 12.9308 40.809 12.4948C41.9347 12.0588 43.1354 11.849 44.3422 11.8773V10.9027Z" fill="#4A1F00"/>
<path d="M34.9795 9.45837V11.3727V13.3044H435.191V11.3727V9.45837H34.9795Z" fill="#4A1F00"/>
<path d="M876.333 10.1022C871.67 8.79697 866.188 6.2388 863.055 1.10498C862.321 3.07114 861.183 4.8615 859.715 6.36033C858.246 7.85917 856.479 9.03313 854.528 9.80636C852.282 8.91826 850.367 7.35568 849.046 5.33384C848.54 6.84565 847.58 8.16444 846.296 9.11021C844.673 10.2824 842.712 10.8933 840.71 10.8505V11.825C843.129 11.7819 845.468 12.695 847.219 14.3659C848.092 15.2063 848.738 16.254 849.098 17.4114C850.422 15.3842 852.335 13.8112 854.58 12.904C856.529 13.681 858.294 14.8562 859.762 16.3546C861.23 17.8529 862.37 19.6414 863.107 21.6054C866.24 16.3846 871.722 13.8612 876.386 12.5908C879.195 11.8178 882.087 11.3855 885 11.303C882.074 11.2485 879.164 10.8454 876.333 10.1022Z" fill="#4A1F00"/>
<path d="M850.003 9.45837H449.774V13.3218H850.003V9.45837Z" fill="#4A1F00"/>
</svg>
