<?xml version="1.0"?>
<svg xmlns="http://www.w3.org/2000/svg" viewBox="0 0 512 512" width="512" height="512">
    <defs>
        <style type="text/css">
            path{fill:#eaeaea}
        </style>
    </defs>
    <g id="_26-shield" data-name="26-shield">
        <g id="filled">
            <path d="M470.158,185.55c-3.381-56.56-10.2-106.68-10.269-107.179a12,12,0,1,0-23.778,3.258c7.417,54.108,22.058,204.368,1.022,249.281a12,12,0,1,0,21.734,10.18C470.983,315.221,474.782,262.89,470.158,185.55Z"/>
            <path d="M320.227,438.242c-27.948,20-52.966,36.318-64.248,43.553C206.663,450.372,94.466,372.754,74.867,330.91c-4.379-9.349-7.5-24.145-9.261-43.974a12,12,0,1,0-23.9,2.128c2.043,22.947,5.783,39.964,11.432,52.026,11.849,25.3,48.753,60.891,109.687,105.789,44.542,32.82,86.4,59.037,86.821,59.3a12,12,0,0,0,12.718,0c.329-.2,33.381-20.9,71.834-48.417a12,12,0,1,0-13.966-19.517Z"/>
            <path d="M52.83,203.982q.338.018.671.018a12,12,0,0,0,11.972-11.339C67.84,149.726,72.384,109.707,74.6,91.67c70.829-4.29,157.885-49.165,181.406-61.955,7.951,4.308,23.312,12.349,43.019,21.319a12,12,0,1,0,9.942-21.844c-27.615-12.568-46.828-23.5-47.017-23.609a12.005,12.005,0,0,0-11.906,0C248.955,6.2,139.842,68,64,68A12,12,0,0,0,52.111,78.371c-.073.533-7.353,54.051-10.6,112.968A12,12,0,0,0,52.83,203.982Z"/>
            <path d="M261.407,81.025A12,12,0,0,0,250.593,59.6C235.15,67.4,219.464,74.655,203.97,81.179c-36.366,15.312-69.639,25.709-98.892,30.9a12,12,0,0,0-9.838,10.566c-.708,6.767-1.379,13.58-1.993,20.251a12,12,0,0,0,10.847,13.051q.563.053,1.116.052a12,12,0,0,0,11.935-10.9c.338-3.669.693-7.38,1.063-11.1,28.742-5.908,60.674-16.216,95.076-30.7C229.283,96.561,245.474,89.067,261.407,81.025Z"/>
            <path d="M256,424.345c-13.729-9.224-32.091-21.874-50.929-35.768-75.03-55.342-86.307-77.156-86.736-78.027A12,12,0,1,0,96.6,320.731c2.966,6.332,18.526,31.327,94.223,87.16,22.464,16.569,44.23,31.377,58.534,40.881a12,12,0,0,0,13.282,0c11.435-7.6,22.742-15.32,33.607-22.952a12,12,0,0,0-13.8-19.639C273.864,412.213,264.994,418.305,256,424.345Z"/>
            <path d="M418.753,142.9a12,12,0,0,0-23.9,2.2c1.451,15.742,2.617,30.988,3.466,45.316,5.685,95.838-4.241,119.209-4.655,120.134A12,12,0,1,0,415.4,320.73C418.458,314.2,428,285.393,422.278,189,421.414,174.409,420.228,158.9,418.753,142.9Z"/>
            <path d="M300,320V284h36a12,12,0,0,0,12-12V208a12,12,0,0,0-12-12H300V160a12,12,0,0,0-12-12H224a12,12,0,0,0-12,12v36H176a12,12,0,0,0-12,12v64a12,12,0,0,0,12,12h36v36a12,12,0,0,0,12,12h64A12,12,0,0,0,300,320Zm-24-48v36H236V272a12,12,0,0,0-12-12H188V220h36a12,12,0,0,0,12-12V172h40v36a12,12,0,0,0,12,12h36v40H288A12,12,0,0,0,276,272Z"/>
            <path d="M292,96a12,12,0,0,0,12,12,36.04,36.04,0,0,1,36,36,12,12,0,0,0,24,0,36.04,36.04,0,0,1,36-36h.37a12,12,0,0,0,0-24,36.04,36.04,0,0,1-36-36,12,12,0,0,0-12-12H352a12,12,0,0,0-12,12,36.04,36.04,0,0,1-36,36A12,12,0,0,0,292,96Zm60.185-12.285a60.477,60.477,0,0,0,12.038,12.146A60.51,60.51,0,0,0,352,108.038,60.488,60.488,0,0,0,339.962,96,60.5,60.5,0,0,0,352.185,83.715Z"/>
            <path d="M400.37,356a36.04,36.04,0,0,1-36-36,12,12,0,0,0-12-12H352a12,12,0,0,0-12,12,36.04,36.04,0,0,1-36,36,12,12,0,0,0,0,24,36.04,36.04,0,0,1,36,36,12,12,0,0,0,24,0,36.04,36.04,0,0,1,36-36h.37a12,12,0,0,0,0-24ZM352,380.038A60.488,60.488,0,0,0,339.962,368a60.5,60.5,0,0,0,12.223-12.285,60.477,60.477,0,0,0,12.038,12.146A60.51,60.51,0,0,0,352,380.038Z"/>
            <path d="M83.63,288a12,12,0,0,0,24,0,36.041,36.041,0,0,1,36-36H144a12,12,0,0,0,0-24,36.04,36.04,0,0,1-36-36,12,12,0,0,0-12-12h-.185A12,12,0,0,0,83.63,192a36.04,36.04,0,0,1-36,36,12,12,0,1,0,0,24A36.04,36.04,0,0,1,83.63,288Zm12.185-60.285a60.456,60.456,0,0,0,12.039,12.146A60.489,60.489,0,0,0,95.63,252.038,60.483,60.483,0,0,0,83.593,240,60.525,60.525,0,0,0,95.815,227.715Z"/>
        </g>
    </g>
</svg>
