<?xml version="1.0" encoding="iso-8859-1"?>

<svg version="1.1" id="Capa_1" xmlns="http://www.w3.org/2000/svg" xmlns:xlink="http://www.w3.org/1999/xlink" x="0px" y="0px"
	 viewBox="0 0 448 448" style="enable-background:new 0 0 448 448;" xml:space="preserve">
<g>
	<g>
		<path d="M395.685,152h-75.744l-2.344-4.568l3.416-8.248l29.128-9.376c3.308-1.067,5.549-4.148,5.544-7.624v-20.368
			c0.005-3.476-2.236-6.557-5.544-7.624L321.013,84.8l-3.416-8.248l13.976-27.28c1.43-3.323,0.681-7.181-1.888-9.728l-14-13.944
			c-2.457-2.453-6.215-3.041-9.304-1.456l-27.288,13.968l-8.208-3.44l-9.4-29.128c-1.066-3.305-4.143-5.545-7.616-5.544h-20.368
			c-3.473-0.001-6.55,2.239-7.616,5.544l-9.4,29.128l-8.232,3.416l-27.28-13.968c-3.087-1.587-6.847-0.988-9.288,1.48l-14.4,14.4
			c-2.455,2.455-3.047,6.214-1.464,9.304l13.976,27.28l-3.44,8.216l-29.128,9.376c-3.308,1.067-5.549,4.148-5.544,7.624v20.368
			c-0.005,3.476,2.236,6.557,5.544,7.624l29.128,9.408l3.408,8.248L167.429,152H91.685c-4.418,0-8,3.582-8,8v22.112L46.637,256.2
			c-5.426,10.857-1.023,24.056,9.834,29.482c3.05,1.524,6.413,2.318,9.822,2.318h17.392v93.6c0,14.58,11.82,26.4,26.4,26.4h30.952
			c2.152,0,4.344-0.048,6.648-0.16v12.8c0.022,15.104,12.263,27.342,27.368,27.36h161.264c15.108-0.018,27.35-12.26,27.368-27.368
			V265.6c25.774-29.138,40.002-66.698,40-105.6C403.685,155.582,400.104,152,395.685,152z M147.685,116.36v-8.72l27.104-8.736
			c2.235-0.722,4.04-2.389,4.936-4.56l6.24-15.064c0.899-2.169,0.799-4.623-0.272-6.712l-13-25.368l6.176-6.168l25.392,13
			c2.087,1.069,4.537,1.168,6.704,0.272l15.064-6.24c2.168-0.898,3.832-2.703,4.552-4.936L239.325,16h8.72l8.744,27.104
			c0.72,2.233,2.384,4.038,4.552,4.936l15.064,6.24c2.167,0.896,4.617,0.797,6.704-0.272l25.376-13l6.168,6.168l-13,25.392
			c-1.071,2.089-1.171,4.543-0.272,6.712l6.304,15.072c0.898,2.168,2.703,3.832,4.936,4.552l27.064,8.736v8.72l-27.104,8.736
			c-2.235,0.722-4.04,2.389-4.936,4.56l-6.24,15.064c-0.899,2.169-0.799,4.623,0.272,6.712l0.288,0.568h-116.56l0.288-0.568
			c1.071-2.089,1.171-4.543,0.272-6.712l-6.28-15.072c-0.898-2.168-2.703-3.832-4.936-4.552L147.685,116.36z M349.789,257.104
			c-1.352,1.474-2.102,3.4-2.104,5.4v158.128c-0.009,6.275-5.093,11.359-11.368,11.368H175.053
			c-6.275-0.009-11.359-5.093-11.368-11.368v-14.128c24.092-3.113,47.282-11.163,68.12-23.648c3.828-2.207,5.141-7.099,2.934-10.927
			s-7.099-5.141-10.927-2.934c-0.083,0.048-0.166,0.098-0.248,0.149c-20.861,12.483-44.285,20.063-68.504,22.168h-0.08
			c-2.112,0.184-4,0.304-5.88,0.416c-2.688,0.136-5.368,0.272-8.064,0.272h-30.952c-5.744,0-10.4-4.656-10.4-10.4V280
			c0-4.418-3.582-8-8-8H66.293c-3.3-0.003-5.974-2.681-5.971-5.981c0.001-0.923,0.215-1.833,0.627-2.659l37.936-75.784
			c0.54-1.114,0.814-2.338,0.8-3.576v-16h287.776C385.588,201.165,372.275,232.654,349.789,257.104z"/>
	</g>
</g>
<g>
	<g>
		<path d="M243.685,80c-17.673,0-32,14.327-32,32c0,4.418,3.582,8,8,8s8-3.582,8-8c0-8.837,7.163-16,16-16s16,7.163,16,16
			c0,4.418,3.582,8,8,8s8-3.582,8-8C275.685,94.327,261.359,80,243.685,80z"/>
	</g>
</g>
<g>
</g>
<g>
</g>
<g>
</g>
<g>
</g>
<g>
</g>
<g>
</g>
<g>
</g>
<g>
</g>
<g>
</g>
<g>
</g>
<g>
</g>
<g>
</g>
<g>
</g>
<g>
</g>
<g>
</g>
</svg>
